<svg width="141" height="40" viewBox="0 0 141 40" fill="none" xmlns="http://www.w3.org/2000/svg">
<path d="M2.15332 11.3896C2.15332 9.93457 2.96387 9.20703 4.58496 9.20703C6.20605 9.20703 7.0166 9.93457 7.0166 11.3896C7.0166 12.083 6.81152 12.625 6.40137 13.0156C6.00098 13.3965 5.39551 13.5869 4.58496 13.5869C2.96387 13.5869 2.15332 12.8545 2.15332 11.3896ZM6.81152 32H2.34375V15.623H6.81152V32ZM18.4131 28.7334C19.1943 28.7334 20.1318 28.5625 21.2256 28.2207V31.5459C20.1123 32.0439 18.7451 32.293 17.124 32.293C15.3369 32.293 14.0332 31.8438 13.2129 30.9453C12.4023 30.0371 11.9971 28.6797 11.9971 26.873V18.9775H9.8584V17.0879L12.3193 15.5938L13.6084 12.1367H16.4648V15.623H21.0498V18.9775H16.4648V26.873C16.4648 27.5078 16.6406 27.9766 16.9922 28.2793C17.3535 28.582 17.8271 28.7334 18.4131 28.7334ZM39.2139 32H34.7461V22.4346C34.7461 21.2529 34.5459 20.3691 34.1455 19.7832C33.7549 19.1875 33.1348 18.8896 32.2852 18.8896C31.1426 18.8896 30.3125 19.3096 29.7949 20.1494C29.2773 20.9893 29.0186 22.3711 29.0186 24.2949V32H24.5508V15.623H27.9639L28.5645 17.7178H28.8135C29.2529 16.9658 29.8877 16.3799 30.7178 15.96C31.5479 15.5303 32.5 15.3154 33.5742 15.3154C36.0254 15.3154 37.6855 16.1162 38.5547 17.7178H38.9502C39.3896 16.9561 40.0342 16.3652 40.8838 15.9453C41.7432 15.5254 42.71 15.3154 43.7842 15.3154C45.6396 15.3154 47.041 15.7939 47.9883 16.751C48.9453 17.6982 49.4238 19.2217 49.4238 21.3213V32H44.9414V22.4346C44.9414 21.2529 44.7412 20.3691 44.3408 19.7832C43.9502 19.1875 43.3301 18.8896 42.4805 18.8896C41.3867 18.8896 40.5664 19.2803 40.0195 20.0615C39.4824 20.8428 39.2139 22.083 39.2139 23.7822V32ZM57.583 23.7822C57.583 25.4033 57.8467 26.6289 58.374 27.459C58.9111 28.2891 59.7803 28.7041 60.9814 28.7041C62.1729 28.7041 63.0273 28.2939 63.5449 27.4736C64.0723 26.6436 64.3359 25.4131 64.3359 23.7822C64.3359 22.1611 64.0723 20.9453 63.5449 20.1348C63.0176 19.3242 62.1533 18.9189 60.9521 18.9189C59.7607 18.9189 58.9014 19.3242 58.374 20.1348C57.8467 20.9355 57.583 22.1514 57.583 23.7822ZM68.9062 23.7822C68.9062 26.4482 68.2031 28.5332 66.7969 30.0371C65.3906 31.541 63.4326 32.293 60.9229 32.293C59.3506 32.293 57.9639 31.9512 56.7627 31.2676C55.5615 30.5742 54.6387 29.583 53.9941 28.2939C53.3496 27.0049 53.0273 25.501 53.0273 23.7822C53.0273 21.1064 53.7256 19.0264 55.1221 17.542C56.5186 16.0576 58.4814 15.3154 61.0107 15.3154C62.583 15.3154 63.9697 15.6572 65.1709 16.3408C66.3721 17.0244 67.2949 18.0059 67.9395 19.2852C68.584 20.5645 68.9062 22.0635 68.9062 23.7822Z" fill="#333333"/>
<path d="M110.695 32V10.584H115.236V32H110.695ZM138.396 21.0869C138.396 24.6123 137.39 27.3125 135.378 29.1875C133.376 31.0625 130.48 32 126.691 32H120.627V10.584H127.351C130.847 10.584 133.562 11.5068 135.495 13.3525C137.429 15.1982 138.396 17.7764 138.396 21.0869ZM133.679 21.2041C133.679 16.6045 131.647 14.3047 127.585 14.3047H125.168V28.25H127.116C131.491 28.25 133.679 25.9014 133.679 21.2041Z" fill="#333333"/>
<path d="M76 12.8428C76 10.7199 77.7199 9 79.8428 9H82.3774V11.4528H79.8428C79.0746 11.4528 78.4528 12.0746 78.4528 12.8428V15.3774H76V12.8428Z" fill="#333333"/>
<path d="M95.6226 9H98.1572C100.28 9 102 10.7199 102 12.8428V15.3774H99.5472V12.8428C99.5472 12.0746 98.9254 11.4528 98.1572 11.4528H95.6226V9Z" fill="#333333"/>
<path d="M78.4528 28.6226V31.1572C78.4528 31.9254 79.0746 32.5472 79.8428 32.5472H82.3774V35H79.8428C77.7199 35 76 33.2801 76 31.1572V28.6226H78.4528Z" fill="#333333"/>
<path d="M102 28.6226V31.1572C102 33.2801 100.28 35 98.1572 35H95.6226V32.5472H98.1572C98.9254 32.5472 99.5472 31.9254 99.5472 31.1572V28.6226H102Z" fill="#333333"/>
<path d="M90.9623 21.5094C91.7751 21.5094 92.434 20.8505 92.434 20.0377C92.434 19.2249 91.7751 18.566 90.9623 18.566C90.1495 18.566 89.4906 19.2249 89.4906 20.0377C89.4906 20.8505 90.1495 21.5094 90.9623 21.5094Z" fill="#333333"/>
<path fill-rule="evenodd" clip-rule="evenodd" d="M94.5693 15.0789C92.4066 13.5056 89.4736 13.5155 87.3216 15.1035C85.3618 16.5497 84.4614 19.0009 84.9699 21.3386L82.5954 23.7157C82.1418 24.1699 81.8868 24.7855 81.8868 25.4276V26.7796C81.8868 28.0695 82.9331 29.1132 84.2214 29.1132H85.58C86.2216 29.1132 86.8372 28.8582 87.2908 28.4041L89.6606 26.0315C90.0555 26.1179 90.4589 26.1641 90.8644 26.169C93.5372 26.2117 95.9298 24.5178 96.7775 21.9823C97.6256 19.4458 96.732 16.6522 94.5693 15.0789ZM88.1323 24.0907C88.7432 23.5192 89.293 23.3505 89.7748 23.5192C90.1352 23.6454 90.5138 23.712 90.8956 23.7164L90.9017 23.7165C92.506 23.7429 93.9424 22.7264 94.4513 21.2045C94.9601 19.6826 94.424 18.0064 93.1264 17.0624C91.8288 16.1184 90.0692 16.1244 88.778 17.0772C87.4869 18.0299 86.9621 19.7097 87.4812 21.2282C87.6575 21.7436 87.3183 22.4582 86.9103 22.8667L84.3396 25.4404V26.6604H85.5656L88.1323 24.0907Z" fill="#333333"/>
</svg>
